<svg width="1232" height="208" viewBox="0 0 1232 208" fill="none" xmlns="http://www.w3.org/2000/svg">
<g clip-path="url(#clip0_204_961)">
<path d="M0 139.064H65.7217C65.7217 151.846 70.1534 159.079 78.4664 159.079C84.8387 159.079 88.4593 154.635 88.4593 147.953C88.4593 141.272 84.578 136.827 74.8747 132.934L47.4158 122.098C16.9156 109.578 1.39032 90.114 1.39032 61.4704C1.39032 23.3564 28.5596 0 75.425 0C122.29 0 147.78 21.7006 147.78 61.4704H84.8387C84.2883 50.3441 80.1174 44.505 73.1947 44.505C67.3727 44.505 64.0418 48.6592 64.0418 54.7888C64.0418 61.7609 68.4734 65.9151 79.8567 70.9117L116.179 86.4827C141.407 97.6089 152.791 117.073 152.791 143.218C152.791 185.225 123.391 208 77.3657 208C28.8202 208.029 0 183.278 0 139.064Z" fill="white"/>
<path d="M227.665 179.095L223.494 201.348H154.731L208.52 6.68164H290.607L344.395 201.348H275.632L271.461 179.095H227.665ZM249.563 63.9688L236.529 133.225H262.597L249.563 63.9688Z" fill="white"/>
<path d="M422.89 6.68164V143.508H464.223V201.348H354.967V6.68164H422.89Z" fill="white"/>
<path d="M464.773 64.5207V6.68164H597.607V64.5207H565.166V201.348H497.214V64.5207H464.773Z" fill="white"/>
<path d="M684.589 158.818V201.377H616.666V6.71069H699.564C746.719 6.71069 776.93 35.6448 776.93 82.6191C776.93 105.714 768.327 125.439 753.352 139.354L778.031 201.377H705.937L690.411 158.818H684.589ZM684.589 112.919H688.731C701.215 112.919 708.688 102.896 708.688 82.59C708.688 62.2839 700.926 52.552 688.992 52.552H684.56V112.919H684.589Z" fill="white"/>
<path d="M854.296 179.124L850.125 201.377H781.362L835.15 6.71069H917.237L971.025 201.377H902.262L898.091 179.124H854.296ZM876.222 63.9688L863.188 133.225H889.256L876.222 63.9688Z" fill="white"/>
<path d="M1049.52 6.68164V201.348H981.597V6.68164H1049.52Z" fill="white"/>
<path d="M1131.35 6.68164L1169.06 93.4548V6.68164H1232V201.348H1170.45L1132.74 115.155V201.377H1070.06V6.71069H1131.35V6.68164Z" fill="white"/>
</g>
<defs>
<clipPath id="clip0_204_961">
<rect width="1232" height="208" fill="white"/>
</clipPath>
</defs>
</svg>
