<svg width="608" height="181" viewBox="0 0 608 181" fill="none" xmlns="http://www.w3.org/2000/svg">
<g clip-path="url(#clip0_204_924)">
<path d="M608 181H0V0H608V181ZM17.9968 162.889H590.003V18.111H17.9968V162.889Z" fill="white" style="mix-blend-mode:difference"/>
<path d="M45.3933 105.264H72.9843C72.9843 110.649 74.8448 113.696 78.3347 113.696C81.0099 113.696 82.53 111.823 82.53 109.009C82.53 106.194 80.9005 104.322 76.8269 102.682L65.2992 98.1176C52.4947 92.8434 45.977 84.6445 45.977 72.5787C45.977 56.5235 57.3831 46.6848 77.0579 46.6848C96.7328 46.6848 107.434 55.826 107.434 72.5787H81.01C80.7789 67.8918 79.0279 65.4322 76.1216 65.4322C73.6775 65.4322 72.2791 67.1821 72.2791 69.7641C72.2791 72.701 74.1395 74.451 78.9184 76.5557L94.1671 83.1149C104.758 87.8017 109.537 96.0006 109.537 107.014C109.537 124.709 97.1949 134.303 77.8727 134.303C57.4925 134.315 45.3933 123.889 45.3933 105.264Z" fill="white" style="mix-blend-mode:difference"/>
<path d="M140.971 122.127L139.22 131.501H110.352L132.933 49.4994H167.395L189.976 131.501H161.108L159.357 122.127H140.971ZM150.164 73.6311L144.692 102.805H155.636L150.164 73.6311Z" fill="white" style="mix-blend-mode:difference"/>
<path d="M222.929 49.4994V107.136H240.282V131.501H194.414V49.4994H222.929Z" fill="white" style="mix-blend-mode:difference"/>
<path d="M240.513 73.8636V49.4994H296.278V73.8636H282.659V131.501H254.132V73.8636H240.513Z" fill="white" style="mix-blend-mode:difference"/>
<path d="M332.795 113.585V131.513H304.28V49.5116H339.082C358.878 49.5116 371.561 61.6998 371.561 81.4873C371.561 91.2159 367.949 99.5249 361.663 105.387L372.023 131.513H341.757L335.239 113.585H332.795ZM332.795 94.2507H334.534C339.775 94.2507 342.912 90.0289 342.912 81.4751C342.912 72.9213 339.653 68.8219 334.643 68.8219H332.783V94.2507H332.795Z" fill="white" style="mix-blend-mode:difference"/>
<path d="M404.04 122.139L402.289 131.513H373.422L396.003 49.5116H430.464L453.045 131.513H424.177L422.426 122.139H404.04ZM413.246 73.6311L407.774 102.804H418.718L413.246 73.6311Z" fill="white" style="mix-blend-mode:difference"/>
<path d="M485.999 49.4994V131.501H457.484V49.4994H485.999Z" fill="white" style="mix-blend-mode:difference"/>
<path d="M520.351 49.4994L536.183 86.0518V49.4994H562.607V131.501H536.767L520.934 95.193V131.513H494.62V49.5116H520.351V49.4994Z" fill="white" style="mix-blend-mode:difference"/>
</g>
<defs>
<clipPath id="clip0_204_924">
<rect width="608" height="181" fill="white"/>
</clipPath>
</defs>
</svg>
