<?xml version="1.0" encoding="UTF-8"?>
<svg xmlns="http://www.w3.org/2000/svg" version="1.1" viewBox="0 0 268 56">
  <defs>
    <style>
      .cls-1 {
        fill: none;
        stroke: #000;
        stroke-miterlimit: 10;
        stroke-width: 2px;
      }
    </style>
  </defs>
  <!-- Generator: Adobe Illustrator 28.6.0, SVG Export Plug-In . SVG Version: 1.2.0 Build 709)  -->
  <g>
    <g id="_레이어_1" data-name="레이어_1">
      <g>
        <path class="cls-1" d="M1.8,8.3h11.1c12.8,0,17,5.5,17,15.9s-5.1,15.6-15.8,15.6h-1.6v9.4H1.8V8.3ZM14.5,30c3.6,0,5-2,5-6s-1.6-5.9-5-5.9h-2.1v11.9h2.1Z"/>
        <path class="cls-1" d="M34.7,8.3h12.6c11.9,0,15.7,5.5,15.7,14s-1.8,9.2-5.1,11.5l6.8,15.4h-11.7l-4.4-12.8h-3.4v12.8h-10.5V8.3ZM47.3,28.7c4,0,5.3-1.8,5.3-5.5s-1.4-5.4-5.3-5.4h-2.2v10.9h2.2Z"/>
        <path class="cls-1" d="M66.9,28.8c0-13,6.3-21,16.5-21s16.3,8.1,16.3,21-6.2,21-16.5,21-16.3-7.9-16.3-21ZM83.3,39.7c3.5,0,5.8-4.3,5.8-11s-2.4-10.8-5.8-10.8-5.9,4.3-5.9,10.8,2.3,11,5.8,11Z"/>
        <path class="cls-1" d="M105.2,8.3h10.9c13,0,19,6.6,19,20.5s-6.1,20.4-19,20.4h-10.9V8.3ZM117.7,39.1c4.9,0,6.6-2.7,6.6-10.5s-1.7-10.4-6.7-10.4h-2v20.9h2Z"/>
        <path class="cls-1" d="M140,32.1V8.3h10.7v24.8c0,4.8,1.3,6.5,4.2,6.5s4.3-1.6,4.3-6.4V8.3h10.7v23.9c0,11.8-4.9,17.6-15,17.6s-14.9-5.7-14.9-17.6Z"/>
        <path class="cls-1" d="M191.5,49.9c-10.2,0-16.6-8.1-16.6-21s6.6-21.1,16.6-21.1,14.4,5.7,15.7,15.3l-10.4,1.4c-.7-3.9-2.5-6.2-5.3-6.2s-5.7,4.4-5.7,10.6,2,10.6,5.7,10.6,4.6-2.3,5.3-6.2l10.4,1.3c-1.4,9.6-7.4,15.4-15.7,15.4Z"/>
        <path class="cls-1" d="M216.6,18.4h-7.1v-10.1h24.8v10.1h-7.1v30.8h-10.6v-30.8Z"/>
        <path class="cls-1" d="M236.5,37.8l10-1.2c.5,3,2.2,4.6,4.8,4.6s3.8-1.3,3.8-3.4-1.1-2.9-5.6-4.5c-8.7-3.2-12.2-7.2-12.2-13.2s5.4-12.4,13.4-12.4,13.7,4.6,14.5,11.5l-9.6,1.1c-.5-2.4-2.1-3.8-4.4-3.8s-3.6,1.2-3.6,3.2,1.5,3.3,6.2,5c8.6,3.2,11.9,6.8,11.9,12.6s-5.5,12.6-14.3,12.6-14.1-4.5-15.1-11.9Z"/>
      </g>
    </g>
  </g>
</svg>