<?xml version="1.0" encoding="UTF-8"?>
<svg xmlns="http://www.w3.org/2000/svg" version="1.1" viewBox="0 0 500 147.9">
  <defs>
    <style>
      .cls-1 {
        fill: #fff;
      }
    </style>
  </defs>
  <!-- Generator: Adobe Illustrator 28.6.0, SVG Export Plug-In . SVG Version: 1.2.0 Build 709)  -->
  <g>
    <g id="_레이어_1" data-name="레이어_1">
      <g id="_레이어_1-2" data-name="_레이어_1">
        <g>
          <path class="cls-1" d="M37.3,86h22.7c0,4.4,1.5,6.9,4.4,6.9s3.4-1.5,3.4-3.8-1.3-3.8-4.7-5.2l-9.5-3.7c-10.5-4.3-15.9-11-15.9-20.9s9.4-21.2,25.6-21.2,25,7.5,25,21.2h-21.7c-.2-3.8-1.6-5.8-4-5.8s-3.2,1.4-3.2,3.5,1.5,3.8,5.5,5.5l12.5,5.4c8.7,3.8,12.6,10.5,12.6,19.5,0,14.5-10.2,22.3-26,22.3s-26.7-8.5-26.7-23.7Z"/>
          <path class="cls-1" d="M115.9,99.8l-1.4,7.7h-23.7l18.6-67h28.3l18.6,67h-23.7l-1.4-7.7h-15.3ZM123.5,60.2l-4.5,23.8h9l-4.5-23.8Z"/>
          <path class="cls-1" d="M183.3,40.5v47.1h14.3v19.9h-37.7V40.5h23.4Z"/>
          <path class="cls-1" d="M197.8,60.4v-19.9h45.9v19.9h-11.2v47.1h-23.5v-47.1h-11.2Z"/>
          <path class="cls-1" d="M273.7,92.8v14.7h-23.4V40.5h28.6c16.3,0,26.7,10,26.7,26.1s-3,14.7-8.1,19.5l8.5,21.3h-24.9l-5.4-14.7h-2ZM273.7,77h1.4c4.3,0,6.9-3.4,6.9-10.4s-2.7-10.3-6.8-10.3h-1.5v20.8h0Z"/>
          <path class="cls-1" d="M332.3,99.8l-1.4,7.7h-23.7l18.6-67h28.3l18.6,67h-23.7l-1.4-7.7h-15.3ZM339.8,60.2l-4.5,23.8h9l-4.5-23.8Z"/>
          <path class="cls-1" d="M399.7,40.5v67h-23.5V40.5h23.5Z"/>
          <path class="cls-1" d="M427.9,40.5l13,29.9v-29.9h21.7v67h-21.2l-13-29.7v29.7h-21.6V40.5h21.2-.1Z"/>
        </g>
      </g>
    </g>
  </g>
</svg>